<?xml version="1.0" standalone="no"?><!DOCTYPE svg PUBLIC "-//W3C//DTD SVG 1.1//EN" "http://www.w3.org/Graphics/SVG/1.1/DTD/svg11.dtd"><svg t="1505481228741" class="icon" style="" viewBox="0 0 1024 1024" version="1.1" xmlns="http://www.w3.org/2000/svg" p-id="9815" xmlns:xlink="http://www.w3.org/1999/xlink" width="128" height="128"><defs><style type="text/css"></style></defs><path d="M831.758628 960.158996h-606.564749c-21.782096 0-61.168128-9.580193-61.168128-55.980989V790.974759h-30.921244c-16.412808 0-29.717835-12.288884-29.717835-27.414373 0-15.170514 13.304004-27.412326 29.717835-27.412326h30.964222V623.649869h-30.964222c-16.412808 0-29.717835-12.242835-29.717835-27.455305 0-15.081487 13.304004-27.372418 29.717835-27.372417h30.964222V455.487915h-30.341028c-16.411785 0-29.721929-12.243859-29.721929-27.460422 0-15.127536 13.308097-27.414373 29.721929-27.414373h30.341028V287.939945h-33.17968c-16.411785 0-29.721929-12.283768-29.721928-27.455306 0-15.127536 13.30912-27.412326 29.721928-27.412326h33.17968V121.640408c0-28.037567 18.9854-57.800427 62.635549-57.800428h605.055373c50.351781 0 91.072205 37.617759 91.072205 84.060511V876.188536c-0.047072 46.39875-40.768519 83.97046-91.073228 83.97046zM224.882793 119.90795a9.818623 9.818623 0 0 0-0.132006 1.732458V233.07129h29.452799c16.411785 0 29.721929 12.237719 29.721929 27.412326 0 15.171538-13.308097 27.455305-29.721929 27.455305h-29.451776v112.715132h32.291451c16.411785 0 29.721929 12.289907 29.721928 27.414373 0 15.174608-13.308097 27.460422-29.721928 27.460421h-32.291451V568.869219h31.625278c16.411785 0 29.721929 12.283768 29.721929 27.366277 0 15.217586-13.308097 27.460422-29.721929 27.460422h-31.625278v112.493074h31.625278c16.411785 0 29.721929 12.242835 29.721929 27.412326 0 15.128559-13.308097 27.414373-29.721929 27.414373h-31.625278v113.204272h485.639633v-784.353968H226.65516c-0.707105 0-1.283226 0-1.772367 0.041955z m637.262912 27.991518c0-15.483646-13.663184-28.03245-30.430056-28.03245h-60.684104v784.353968h60.685127c16.766872 0 30.430056-12.549827 30.430057-28.031427l-0.001024-728.290091z" fill="" p-id="9816"></path><path d="M568.863079 404.662343c0 0.23843-0.857531 0.430812-1.914606 0.431835l-148.123572-0.002046c-1.057075 0.001023-1.914606-0.193405-1.916653-0.430812l0.001024-33.370016c0-0.23843 0.857531-0.433882 1.914605-0.431835l148.123573-0.002046c1.057075 0.002047 1.914606 0.194428 1.914606 0.431835l0.001023 33.373085zM526.869662 289.61305h-68.675102c-17.289782 0-31.860638 10.341532-36.406165 24.470321a30.381961 30.381961 0 0 0-1.478677 9.345856v20.463054c0 1.480724 0.118704 2.932796 0.324388 4.363378 0.272199 0.036839 0.586354 0.060375 0.925069 0.060375h142.007271c0.313132 0 0.601704-0.019443 0.8606-0.052189a30.095435 30.095435 0 0 0 0.324389-4.369517v-20.463054a30.474059 30.474059 0 0 0-1.478678-9.348926c-4.542456-14.127765-19.116383-24.469298-36.403095-24.469298zM568.402591 670.032246c1.204431 2.1295 1.000793-239.113913 1.000794-239.113913 0-1.709945-0.181125-3.094478-0.404206-3.094478H537.659403c-0.223081 0-0.404206 1.385557-0.404206 3.094478l0.161682 236.517785c0.002047 0.094144-1.102101 4.270257-1.100054 4.361331 0 0-32.273031 58.702983-33.345456 59.919695-0.890276 1.014096-11.199063 0.37453-11.199063 0.37453s-8.55484 0.50142-9.529027-0.471744c-0.973164-0.973164-35.208896-64.10297-35.208896-64.10297l-0.726548-235.948827c0-1.708921-0.168846-3.094478-0.378623-3.094478h-29.311583c-0.207731 0-0.378623 1.384533-0.378623 3.094478l0.002047 239.416811c0 0.221034 0.020466 3.364631 0.458441 4.157693l59.721173 110.062722a16.012695 16.012695 0 0 0 4.321422 7.849782c6.28617 6.28617 16.48137 6.288217 22.770609 0a16.008602 16.008602 0 0 0 4.221138-7.433297c0.23536-0.164752 0.572028-0.593518 0.876974-1.146103 0 0 57.524135-105.196901 57.768705-107.551528" fill="" p-id="9817"></path><path d="M510.200004 427.870928h-39.010478c-0.278339 0-0.50449 1.36816-0.50449 3.056615v236.412385c0 1.358951 0.147356 2.50096 0.34997 2.894933l19.575848-12.414751a3.742231 3.742231 0 0 1 3.900843 0.555655l15.918551 11.668761c0.162706-0.509606 0.274246-1.52268 0.274246-2.704598V430.927543c0.001023-1.686409-0.225127-3.055592-0.50449-3.056615z" fill="" p-id="9818"></path></svg>