<?xml version="1.0" standalone="no"?><!DOCTYPE svg PUBLIC "-//W3C//DTD SVG 1.1//EN" "http://www.w3.org/Graphics/SVG/1.1/DTD/svg11.dtd"><svg t="1505547850895" class="icon" style="" viewBox="0 0 1638 1024" version="1.1" xmlns="http://www.w3.org/2000/svg" p-id="10346" xmlns:xlink="http://www.w3.org/1999/xlink" width="204.75" height="128"><defs><style type="text/css"></style></defs><path d="M916.48 901.745778c-3.413333 0-6.656-1.251556-9.159111-3.584-3.015111-2.787556-4.608-6.712889-4.323556-10.808889v-0.113778l16.270223-116.736 239.047111-258.446222c11.434667-12.344889 25.429333-19.171556 39.367111-19.171556 11.719111 0 22.983111 4.721778 32.540444 13.596445l39.367111 36.408889c10.581333 9.784889 16.839111 23.722667 17.123556 38.172444 0.284444 14.392889-5.347556 28.501333-15.473778 38.741333l-237.226667 256.853334-115.484444 24.974222h-0.113778c-0.568889 0.056889-1.251556 0.113778-1.934222 0.113778z m44.657778-112.469334l-2.048 52.963556 53.020444-5.802667 176.071111-190.407111-50.972444-47.160889-176.071111 190.407111z m236.259555-250.424888c-2.673778 0-5.176889 0.967111-7.111111 2.730666l-0.056889 0.056889-23.495111 25.429333 50.972445 47.160889 23.495111-25.429333 0.056889-0.056889c3.128889-4.096 2.901333-9.784889-0.512-13.596444l-0.056889-0.056889-36.693334-33.905778-0.056888-0.056889c-1.877333-1.536-4.209778-2.275556-6.542223-2.275555z" p-id="10347"></path><path d="M859.249778 857.088l-65.763556-56.547556-14.222222-5.404444-17.237333-0.113778-15.246223 5.973334-58.936888 56.547555-58.197334-56.035555-15.132444-6.257778-18.147556-0.170667-15.246222 5.973333L521.671111 858.168889l-60.472889-58.197333-0.113778 0.170666-6.428444-7.850666c-5.233778-3.697778-8.078222-8.533333-8.078222-13.824L448.739556 157.582222c0-9.159111 15.132444-25.884444 24.234666-25.884444h606.378667c9.045333 0 24.234667 16.611556 24.234667 25.884444l1.706666 290.304h46.933334V143.189333c-0.113778-34.872889-28.216889-63.374222-62.862223-63.374222H463.075556c-34.645333 0-62.748444 28.501333-62.748445 63.601778v634.88c0 19.057778 8.590222 36.920889 23.665778 49.095111 1.194667 2.048 3.185778 4.323556 5.233778 6.371556l64.284444 61.952c7.509333 7.224889 17.408 11.207111 28.046222 11.207111s20.593778-4.039111 28.216889-11.320889l55.409778-53.361778 54.670222 52.849778c7.509333 7.224889 17.521778 11.207111 28.046222 11.207111 10.524444 0 20.593778-3.982222 28.216889-11.320889l54.840889-52.849778 61.098667 52.849778c7.452444 6.883556 17.123556 10.638222 27.363555 10.638222" p-id="10348"></path><path d="M569.969778 622.592h298.951111c13.425778 0 24.234667-11.605333 24.234667-25.827556s-10.695111-25.884444-24.120889-25.884444h-299.064889c-13.425778 0-24.234667 11.605333-24.234667 25.884444s10.922667 25.827556 24.234667 25.827556zM569.969778 467.456h412.330666c13.425778 0 24.234667-11.605333 24.234667-25.827556s-10.695111-25.884444-24.120889-25.884444H570.026667c-13.425778 0-24.234667 11.605333-24.234667 25.884444 0 14.336 10.865778 25.827556 24.177778 25.827556zM569.969778 312.376889h242.574222c13.425778 0 24.234667-11.605333 24.234667-25.827556 0-14.279111-10.865778-25.827556-24.234667-25.827555h-242.574222c-13.425778 0-24.234667 11.605333-24.234667 25.827555 0.056889 14.336 10.922667 25.827556 24.234667 25.827556z" p-id="10349"></path></svg>