<?xml version="1.0" standalone="no"?><!DOCTYPE svg PUBLIC "-//W3C//DTD SVG 1.1//EN" "http://www.w3.org/Graphics/SVG/1.1/DTD/svg11.dtd"><svg t="1505481180255" class="icon" style="" viewBox="0 0 1024 1024" version="1.1" xmlns="http://www.w3.org/2000/svg" p-id="9057" xmlns:xlink="http://www.w3.org/1999/xlink" width="128" height="128"><defs><style type="text/css"></style></defs><path d="M1023.967254 511.58505c0-282.540699-229.21422-511.58505-511.963672-511.58505-282.756616 0-511.973906 229.043328-511.973906 511.58505 0 260.998078 195.585342 476.33014 448.284415 507.662721 14.245431 3.002377 31.596594 4.751206 52.262242 4.751206 5.801117 0 11.39655-0.304945 16.799601-0.858553 280.274078-2.878557 506.59132-230.797273 506.59132-511.555374z m-73.205205 7.238861c-1.472536-25.525324-4.84535-50.511367-9.980296-74.793376 0.456394-8.671488 0.580214-16.885559 0.347924-24.522485 6.348585 29.689153 9.69684 60.492685 9.69684 92.077 0.002047 2.41807-0.025583 4.828977-0.064468 7.238861zM73.16939 511.58505c0-31.008193 3.228528-61.262211 9.354033-90.451991 18.950589 20.267582 63.617859 19.789699 74.510943-10.492972 19.48987 11.615537 45.68239 13.730709 45.682389 36.94848 0 76.628161 2.729155 158.777054 72.352793 160.046976 1.960653 0.024559 38.827268 13.971186 56.372859 59.475521 6.067176 15.727177 30.063683 0 56.378998 0 13.137192 0 0 22.132044 0 69.991004 0 47.673742 102.782818 121.080538 102.782819 121.080538-0.475837 31.556685 0.819667 57.073823 3.445468 77.460109-23.200375-0.426718-42.752667 2.64729-58.113501 7.87638C229.833319 907.528428 73.16939 727.846272 73.16939 511.58505z m546.867589 425.111669c-2.274807-11.137654-12.228497-17.237576-30.387047-12.463857 14.487955-61.702232 21.532388-96.265388 51.780265-122.509072 43.762669-37.936993 5.211693-80.123772-28.091774-75.152556-26.248801 3.964284-9.661024-32.499149-33.089596-34.516083-23.427549-1.960653-54.022327-48.559924-87.740232-64.594093-17.874072-8.488316-35.438082-31.235367-63.002853-32.254579-24.431411-0.947581-60.136575 20.658485-60.136576 4.004193 0-53.644727-5.431704-91.924527-6.549153-107.21066-0.900509-12.282732-8.027829-4.1362 25.000369-3.343138 17.974355 0.481977 9.194397-36.10323 26.985581-37.532787 17.473959-1.382485 59.111223 16.357533 69.720851 9.286494 9.854429-6.583946 72.443867 164.290623 72.443867 28.244246 0-16.142639-8.360403-44.207807 0-59.495986 33.06299-60.412868 64.014902-109.649196 61.236628-116.851218-1.577937-4.055358-33.826376-7.403613-59.630039 1.254572-8.708327 2.908233 2.769064 16.546845-9.736749 19.459171-46.862261 10.818382-88.263141-12.634749-73.764953-34.679812 14.846111-22.593555 68.638195-9.856475 73.354608-55.179685 2.713805-25.962276 4.960983-56.030052 6.466265-78.37699 63.068345 9.862615 56.125219-81.849064-37.650467-91.666654 189.71464 2.219549 350.477929 124.740901 409.471473 294.781475-2.983958-2.720968-6.455009-4.375653-10.464319-4.779858-28.351693-70.819881-97.172036-19.566618-73.826352 42.897976-125.084731 96.153848-93.066536 163.215129-51.9706 201.618749 21.625508 20.186741 42.243061 50.547182 55.666779 72.350746-14.610751 42.604288 53.835062 25.544767 87.590829-46.75686-42.936862 148.912392-162.718826 265.277541-313.676805 303.466266z" p-id="9058"></path></svg>