<?xml version="1.0" standalone="no"?><!DOCTYPE svg PUBLIC "-//W3C//DTD SVG 1.1//EN" "http://www.w3.org/Graphics/SVG/1.1/DTD/svg11.dtd"><svg t="1505481212632" class="icon" style="" viewBox="0 0 1024 1024" version="1.1" xmlns="http://www.w3.org/2000/svg" p-id="9485" xmlns:xlink="http://www.w3.org/1999/xlink" width="128" height="128"><defs><style type="text/css"></style></defs><path d="M862.5152 530.9312V287.34592c0-35.410773-23.467947-60.49536-58.92352-62.949547-4.885333-0.340053-9.782187-0.543573-14.70208-0.543573-206.37696 0-412.753493-0.01792-619.131733-0.05632-17.631147 0-34.063787 3.39328-47.895467 15.086933-13.83168 11.69408-21.160107 26.5664-21.148587 44.899414v372.60544c0.177493 29.279147 21.637547 54.07232 50.587734 58.447786a105.376427 105.376427 0 0 0 15.71968 1.130667c98.386347 0.06784 196.77952 0.06784 295.179946 0a13.115733 13.115733 0 0 1 10.37056 4.207787c12.757333 13.084587 25.786027 25.92128 38.701227 38.85952 1.289813 1.28896 2.48832 2.68032 4.60288 4.975786H105.655893c-26.520747 0-47.805013-17.235627-53.290666-43.191466a62.9568 62.9568 0 0 1-0.938667-12.9152c0-158.504107 0.180907-317.00736-0.226133-475.511467-0.07936-30.536107 21.352533-51.537067 43.722666-55.168a80.881493 80.881493 0 0 1 12.927147-0.814507c249.156267 0 498.312533-0.078933 747.4688-0.2368 29.314987-0.00128 52.125867 19.99488 55.86944 45.6448 0.388267 3.00032 0.558507 6.024107 0.508587 9.047894 0 82.181973-0.02688 164.366507-0.07936 246.548906 0.000853 2.544213-0.8256 5.812907-2.510507 7.531947-14.464853 14.84928-29.201493 29.404587-43.88096 44.107093a31.002027 31.002027 0 0 1-2.7136 1.877334z m-86.586027 2.261333c0 17.1456-0.000853 33.928533-0.136533 50.6112 0.000853 1.0176-1.821013 2.53312-3.065173 2.906454-1.7408 0.520107-3.731627 0.192-5.654187 0.192H196.120747c-8.843947 0-8.843947 0-8.843947-8.81024V533.192533h588.650667z m-113.129813 255.0656c1.560747-2.465707 2.544213-4.897707 4.25216-6.6048a521379.370667 521379.370667 0 0 1 256.97536-257.08928c6.130347-6.12992 12.68992-11.309227 21.68064-12.0896 10.009173-0.86016 18.367147 2.3744 23.52384 11.309654 5.802667 10.03136 4.128427 19.93856-2.069333 29.234346a52.041387 52.041387 0 0 1-6.67264 7.65696 1606905.430187 1606905.430187 0 0 1-274.992214 275.037867c-16.12672 16.128-32.13056 16.139093-48.178773 0.09088a285104.595627 285104.595627 0 0 1-116.703147-116.7488c-5.858133-5.858987-10.506667-12.305067-11.185066-20.911787-1.51552-19.022933 14.351787-31.746133 32.333653-25.24288a44.093013 44.093013 0 0 1 15.256747 10.17856c33.250987 32.797867 66.206293 65.96864 99.264 99.003734 1.572267 1.572267 3.223467 3.053227 6.514773 6.175146z m112.846933-448.571733V392.840533h-587.861333V339.6864h587.861333z" p-id="9486"></path></svg>