<?xml version="1.0" standalone="no"?><!DOCTYPE svg PUBLIC "-//W3C//DTD SVG 1.1//EN" "http://www.w3.org/Graphics/SVG/1.1/DTD/svg11.dtd"><svg t="1505481206842" class="icon" style="" viewBox="0 0 1024 1024" version="1.1" xmlns="http://www.w3.org/2000/svg" p-id="9375" xmlns:xlink="http://www.w3.org/1999/xlink" width="128" height="128"><defs><style type="text/css"></style></defs><path d="M906.3936 799.2576h-94.97088v-65.14176h94.97088c14.90944 0 27.46368-12.55936 27.46368-27.47392 0-14.90944-12.55424-27.4688-27.46368-27.4688h-32.96256l16.47616-36.88448c6.28736-14.1312 0-29.81888-14.12608-36.10624-14.12608-6.28224-29.81888 0-36.10624 14.12608l-25.89696 58.86464h-47.08864l-25.90208-58.86464c-6.28224-14.12608-21.98016-20.4032-36.10624-14.12608-14.1312 6.28736-20.4032 21.97504-14.1312 36.10624l16.4864 36.88448h-45.52704c-14.90944 0-27.46368 12.55936-27.46368 27.4688 0 14.91456 12.55424 27.47392 27.46368 27.47392h94.96576v65.14176h-94.96576c-14.90944 0-27.46368 12.55424-27.46368 27.4688 0 14.90944 12.55424 27.4688 27.46368 27.4688h94.96576v72.99072c0 14.91456 12.55936 27.4688 27.47392 27.4688 14.90944 0 27.4688-12.55424 27.4688-27.4688v-72.99072h94.97088c14.90944 0 27.46368-12.55936 27.46368-27.4688 0.01024-14.90944-12.54912-27.4688-27.45856-27.4688z" p-id="9376"></path><path d="M553.99424 878.53056h-390.8608c-10.20416 0-18.05312-8.63232-18.05312-18.048V142.336c0-10.20416 8.63232-18.05312 18.05312-18.05312h631.808c10.20928 0 18.048 8.63744 18.048 18.05312v365.7472c0 14.90944 12.55936 27.4688 27.47392 27.4688s27.4688-12.55936 27.4688-27.4688V142.336c0-40.02816-32.96256-72.99584-72.99584-72.99584h-631.808c-40.02816 0-72.99072 32.96256-72.99072 72.99584v718.92992c0 40.02304 32.96256 72.99072 72.99072 72.99072h390.07232c14.91456 0 27.47392-12.55936 27.47392-27.4688 0.00512-14.91968-11.77088-28.25728-26.68032-28.25728z" p-id="9377"></path><path d="M716.46208 194.9184H233.76896c-14.90944 0-27.4688 12.55424-27.4688 27.4688 0 14.90944 12.55936 27.4688 27.4688 27.4688h482.69312c14.90944 0 27.46368-12.55936 27.46368-27.4688 0-14.91456-12.55424-27.4688-27.46368-27.4688z m27.46368 160.896c0-14.91456-12.55424-27.4688-27.46368-27.4688H233.76896c-14.90944 0-27.4688 12.55424-27.4688 27.4688 0 14.90944 12.55936 27.4688 27.4688 27.4688h482.69312c14.90944 0 27.46368-12.55936 27.46368-27.4688zM207.86688 496.3072a29.824 29.824 0 0 0 59.648 0 29.81888 29.81888 0 0 0-29.81376-29.83424 29.81888 29.81888 0 0 0-29.83424 29.80864v0.0256zM312.25344 496.3072a29.824 29.824 0 0 0 59.65312 0.02048v-0.02048a29.81888 29.81888 0 0 0-29.81376-29.83424 29.81888 29.81888 0 0 0-29.83424 29.80864l-0.00512 0.0256zM416.64 496.3072a29.824 29.824 0 0 0 59.648 0.02048v-0.02048a29.824 29.824 0 1 0-59.65312-0.0256l0.00512 0.0256z" p-id="9378"></path></svg>