<?xml version="1.0" standalone="no"?><!DOCTYPE svg PUBLIC "-//W3C//DTD SVG 1.1//EN" "http://www.w3.org/Graphics/SVG/1.1/DTD/svg11.dtd"><svg t="1505481224626" class="icon" style="" viewBox="0 0 1493 1024" version="1.1" xmlns="http://www.w3.org/2000/svg" p-id="9701" xmlns:xlink="http://www.w3.org/1999/xlink" width="186.625" height="128"><defs><style type="text/css"></style></defs><path d="M723.473098 796.25974c3.918367 0 7.124304-4.393321 7.124305-9.855287v-19.710575c0-5.461967-3.205937-9.855288-7.124305-9.855288h-330.092764c-3.918367 0-7.124304 4.393321-7.124304 9.855288v19.710575c0 5.461967 3.205937 9.855288 7.124304 9.855287h330.092764z m-401.929499 73.617811V889.588126c0 5.461967 4.393321 9.855288 9.855288 9.855288h453.93692c5.461967 0 9.855288-4.393321 9.855288-9.855288v-19.710575c0-5.461967-4.393321-9.855288-9.855288-9.855288H331.517625c-5.461967-0.118738-9.974026 4.393321-9.974026 9.855288zM934.70872 149.254174c-17.810761-14.961039-40.252319-23.153989-63.28757-23.153988H845.41744c-11.87384 0-21.372913 9.617811-21.372913 21.372912s9.617811 21.372913 21.372913 21.372913h26.00371c12.942486 0 25.647495 4.630798 35.621522 13.061225 12.705009 10.686456 19.948052 26.122449 19.948052 42.508348v701.269017c0 30.634508-24.935065 55.569573-55.569574 55.569573H245.432282c-30.634508 0-55.569573-24.935065-55.569573-55.569573V224.534323c0-14.723562 5.818182-28.734694 16.3859-39.302412 10.567718-10.567718 24.460111-16.3859 39.302411-16.3859H311.09462c11.87384 0 21.372913-9.617811 21.372912-21.372913s-9.617811-21.372913-21.372912-21.372912h-65.5436c-26.122449 0-50.820037 10.211503-69.580705 28.853432-18.523191 18.641929-28.853432 43.339518-28.853432 69.461966v701.269017c0 54.263451 44.051948 98.315399 98.315399 98.315399H871.539889c54.263451 0 98.315399-44.051948 98.315399-98.315399V224.534323c-0.118738-28.972171-12.942486-56.400742-35.146568-75.280149z" p-id="9702"></path><path d="M729.410019 478.51577c-2.612245 28.497217-10.805195 69.580705-47.732839 139.042672-4.274583 8.074212-12.467532 13.179963-21.254174 13.179962H509.387755c-8.19295 0-15.792208-4.274583-20.185529-11.517625-25.172542-41.439703-85.729128-124.794063-172.526901-137.261595-14.486085-2.018553-34.552876-12.586271-34.552876-20.066791 0-8.549165 13.536178-16.742115 19.710575-19.116883 0.356215-0.118738 31.584416-11.87384 58.538034-11.87384 12.705009 0 44.764378 13.773655 61.031539 24.697588l30.871986 20.541744 0.237476-350.397032c0-13.773655 8.786642-24.935065 19.473099-24.935065h3.443413c10.805195 0 19.473098 11.16141 19.473099 24.935065v204.230056h40.489796v-261.93692c0-13.773655 8.786642-24.935065 19.473098-24.935065h3.443414c10.805195 0 19.473098 11.16141 19.473098 24.935065v261.93692h40.489796V152.341373c0-13.773655 8.786642-24.935065 19.473098-24.935065h3.443414c10.805195 0 19.473098 11.16141 19.473098 24.935065v177.513915h40.489796V210.879406c0-12.348794 6.768089-21.61039 12.823748-21.610389h2.849722c6.055659 0 12.823748 9.261596 12.823747 21.610389l-0.237476 267.636364M770.25603 210.879406c0-35.74026-23.866419-64.831169-53.194806-64.831169h-2.849721c-4.512059 0-8.786642 0.71243-12.942486 1.899815-2.018553-35.502783-28.022263-63.643785-59.844156-63.643785h-3.443414c-6.886827 0-13.41744 1.306122-19.473098 3.680891v-19.948052c0-37.521336-26.953618-68.037106-59.962894-68.037106h-3.443414c-31.109462 0-56.756957 27.072356-59.606679 61.506494-6.174397-2.493506-12.823748-3.799629-19.829314-3.799629h-3.443413c-33.009276 0-59.962894 30.51577-59.962895 68.155844l-0.118738 276.660482c-17.335807-7.836735-37.046382-14.604824-51.651206-14.604824-34.19666 0-70.649351 13.892393-72.074212 14.367347-17.335807 6.530612-46.664193 26.478664-46.664193 59.844156 0 43.339518 50.226345 60.081633 69.580705 62.812616 70.293135 10.092764 126.218924 90.359926 149.254175 128.831169 7.599258 12.705009 20.660482 20.423006 34.671614 20.423005H672.059369c15.673469 0 29.80334-9.380334 36.808906-24.341372 19.35436-41.67718 56.756957-125.862709 60.675324-165.046383 0.831169-3.680891 0.71243-273.929499 0.712431-273.929499" p-id="9703"></path></svg>